<?xml version="1.0" encoding="utf-8" standalone="no"?>
<!DOCTYPE svg PUBLIC "-//W3C//DTD SVG 1.1//EN"
  "http://www.w3.org/Graphics/SVG/1.1/DTD/svg11.dtd">
<svg xmlns:xlink="http://www.w3.org/1999/xlink" width="1008pt" height="432pt" viewBox="0 0 1008 432" xmlns="http://www.w3.org/2000/svg" version="1.1">
 <metadata>
  <rdf:RDF xmlns:dc="http://purl.org/dc/elements/1.1/" xmlns:cc="http://creativecommons.org/ns#" xmlns:rdf="http://www.w3.org/1999/02/22-rdf-syntax-ns#">
   <cc:Work>
    <dc:type rdf:resource="http://purl.org/dc/dcmitype/StillImage"/>
    <dc:date>2026-10-08T06:55:58.630542</dc:date>
    <dc:format>image/svg+xml</dc:format>
    <dc:creator>
     <cc:Agent>
      <dc:title>Matplotlib v3.11.1, https://matplotlib.org/</dc:title>
     </cc:Agent>
    </dc:creator>
   </cc:Work>
  </rdf:RDF>
 </metadata>
 <defs>
  <style type="text/css">*{stroke-linejoin: round; stroke-linecap: butt}</style>
 </defs>
 <g id="figure_1">
  <g id="patch_1">
   <path d="M 0 432 
L 1008 432 
L 1008 0 
L 0 0 
z
" style="fill: #ffffff"/>
  </g>
  <g id="axes_1">
   <g id="patch_2">
    <path d="M 92.945156 350.810156 
L 493.2 350.810156 
L 493.2 21.6 
L 92.945156 21.6 
z
" style="fill: #ffffff"/>
   </g>
   <g id="PathCollection_1">
    <defs>
     <path id="m68da47c972" d="M 0 2.5 
C 0.663008 2.5 1.29895 2.236584 1.767767 1.767767 
C 2.236584 1.29895 2.5 0.663008 2.5 0 
C 2.5 -0.663008 2.236584 -1.29895 1.767767 -1.767767 
C 1.29895 -2.236584 0.663008 -2.5 0 -2.5 
C -0.663008 -2.5 -1.29895 -2.236584 -1.767767 -1.767767 
C -2.236584 -1.29895 -2.5 -0.663008 -2.5 0 
C -2.5 0.663008 -2.236584 1.29895 -1.767767 1.767767 
C -1.29895 2.236584 -0.663008 2.5 0 2.5 
z
" style="stroke: #262626"/>
    </defs>
    <g clip-path="url(#p7b3068c14f)">
     <use xlink:href="#m68da47c972" x="355.402596" y="140.736167" style="fill: #262626; stroke: #262626"/>
     <use xlink:href="#m68da47c972" x="141.912726" y="325.763756" style="fill: #262626; stroke: #262626"/>
     <use xlink:href="#m68da47c972" x="319.574747" y="174.703749" style="fill: #262626; stroke: #262626"/>
     <use xlink:href="#m68da47c972" x="376.408124" y="135.258205" style="fill: #262626; stroke: #262626"/>
     <use xlink:href="#m68da47c972" x="379.796968" y="128.100615" style="fill: #262626; stroke: #262626"/>
     <use xlink:href="#m68da47c972" x="277.060911" y="214.213678" style="fill: #262626; stroke: #262626"/>
     <use xlink:href="#m68da47c972" x="456.129751" y="65.654248" style="fill: #262626; stroke: #262626"/>
     <use xlink:href="#m68da47c972" x="314.548217" y="177.959463" style="fill: #262626; stroke: #262626"/>
     <use xlink:href="#m68da47c972" x="128.323446" y="331.892009" style="fill: #262626; stroke: #262626"/>
     <use xlink:href="#m68da47c972" x="337.223506" y="165.654709" style="fill: #262626; stroke: #262626"/>
     <use xlink:href="#m68da47c972" x="202.299163" y="273.285127" style="fill: #262626; stroke: #262626"/>
     <use xlink:href="#m68da47c972" x="338.057207" y="164.944218" style="fill: #262626; stroke: #262626"/>
     <use xlink:href="#m68da47c972" x="213.068204" y="261.016414" style="fill: #262626; stroke: #262626"/>
     <use xlink:href="#m68da47c972" x="338.283277" y="164.7355" style="fill: #262626; stroke: #262626"/>
     <use xlink:href="#m68da47c972" x="339.130272" y="164.058079" style="fill: #262626; stroke: #262626"/>
     <use xlink:href="#m68da47c972" x="237.664882" y="235.613348" style="fill: #262626; stroke: #262626"/>
     <use xlink:href="#m68da47c972" x="303.058369" y="176.994567" style="fill: #262626; stroke: #262626"/>
     <use xlink:href="#m68da47c972" x="131.308818" y="330.203069" style="fill: #262626; stroke: #262626"/>
     <use xlink:href="#m68da47c972" x="169.364278" y="288.661298" style="fill: #262626; stroke: #262626"/>
     <use xlink:href="#m68da47c972" x="226.437361" y="242.337992" style="fill: #262626; stroke: #262626"/>
     <use xlink:href="#m68da47c972" x="232.920957" y="237.027974" style="fill: #262626; stroke: #262626"/>
     <use xlink:href="#m68da47c972" x="229.88434" y="239.51652" style="fill: #262626; stroke: #262626"/>
     <use xlink:href="#m68da47c972" x="231.546242" y="238.182949" style="fill: #262626; stroke: #262626"/>
     <use xlink:href="#m68da47c972" x="295.931024" y="189.823743" style="fill: #262626; stroke: #262626"/>
     <use xlink:href="#m68da47c972" x="383.880316" y="125.300147" style="fill: #262626; stroke: #262626"/>
     <use xlink:href="#m68da47c972" x="338.832533" y="160.233653" style="fill: #262626; stroke: #262626"/>
     <use xlink:href="#m68da47c972" x="322.466897" y="170.072155" style="fill: #262626; stroke: #262626"/>
     <use xlink:href="#m68da47c972" x="323.004008" y="169.619432" style="fill: #262626; stroke: #262626"/>
     <use xlink:href="#m68da47c972" x="273.844938" y="206.435239" style="fill: #262626; stroke: #262626"/>
     <use xlink:href="#m68da47c972" x="142.073212" y="311.258664" style="fill: #262626; stroke: #262626"/>
     <use xlink:href="#m68da47c972" x="135.523006" y="316.682712" style="fill: #262626; stroke: #262626"/>
     <use xlink:href="#m68da47c972" x="228.786735" y="240.693361" style="fill: #262626; stroke: #262626"/>
     <use xlink:href="#m68da47c972" x="238.594157" y="232.673444" style="fill: #262626; stroke: #262626"/>
     <use xlink:href="#m68da47c972" x="237.659115" y="236.722599" style="fill: #262626; stroke: #262626"/>
     <use xlink:href="#m68da47c972" x="239.571825" y="235.763122" style="fill: #262626; stroke: #262626"/>
     <use xlink:href="#m68da47c972" x="223.270208" y="247.591794" style="fill: #262626; stroke: #262626"/>
     <use xlink:href="#m68da47c972" x="474.40702" y="43.06044" style="fill: #262626; stroke: #262626"/>
    </g>
   </g>
   <g id="matplotlib.axis_1">
    <g id="xtick_1">
     <g id="line2d_1">
      <defs>
       <path id="md6933dea9e" d="M 0 0 
L 0 6 
" style="stroke: #52514e; stroke-width: 1.2"/>
      </defs>
      <g>
       <use xlink:href="#md6933dea9e" x="135.210071" y="350.810156" style="fill: #52514e; stroke: #52514e; stroke-width: 1.2"/>
      </g>
     </g>
     <g id="text_1">
      <!-- $\mathdefault{10^{3}}$ -->
      <g style="fill: #52514e" transform="translate(117.610071 379.110156) scale(0.2 -0.2)">
       <defs>
        <path id="DejaVuSans-14" d="M 794 531 
L 1825 531 
L 1825 4091 
L 703 3866 
L 703 4441 
L 1819 4666 
L 2450 4666 
L 2450 531 
L 3481 531 
L 3481 0 
L 794 0 
L 794 531 
z
" transform="scale(0.015625)"/>
        <path id="DejaVuSans-13" d="M 2034 4250 
Q 1547 4250 1301 3770 
Q 1056 3291 1056 2328 
Q 1056 1369 1301 889 
Q 1547 409 2034 409 
Q 2525 409 2770 889 
Q 3016 1369 3016 2328 
Q 3016 3291 2770 3770 
Q 2525 4250 2034 4250 
z
M 2034 4750 
Q 2819 4750 3233 4129 
Q 3647 3509 3647 2328 
Q 3647 1150 3233 529 
Q 2819 -91 2034 -91 
Q 1250 -91 836 529 
Q 422 1150 422 2328 
Q 422 3509 836 4129 
Q 1250 4750 2034 4750 
z
" transform="scale(0.015625)"/>
        <path id="DejaVuSans-16" d="M 2597 2516 
Q 3050 2419 3304 2112 
Q 3559 1806 3559 1356 
Q 3559 666 3084 287 
Q 2609 -91 1734 -91 
Q 1441 -91 1130 -33 
Q 819 25 488 141 
L 488 750 
Q 750 597 1062 519 
Q 1375 441 1716 441 
Q 2309 441 2620 675 
Q 2931 909 2931 1356 
Q 2931 1769 2642 2001 
Q 2353 2234 1838 2234 
L 1294 2234 
L 1294 2753 
L 1863 2753 
Q 2328 2753 2575 2939 
Q 2822 3125 2822 3475 
Q 2822 3834 2567 4026 
Q 2313 4219 1838 4219 
Q 1578 4219 1281 4162 
Q 984 4106 628 3988 
L 628 4550 
Q 988 4650 1302 4700 
Q 1616 4750 1894 4750 
Q 2613 4750 3031 4423 
Q 3450 4097 3450 3541 
Q 3450 3153 3228 2886 
Q 3006 2619 2597 2516 
z
" transform="scale(0.015625)"/>
       </defs>
       <use xlink:href="#DejaVuSans-14" transform="translate(0 0.746875)"/>
       <use xlink:href="#DejaVuSans-13" transform="translate(63.623047 0.746875)"/>
       <use xlink:href="#DejaVuSans-16" transform="translate(128.203125 42.046875) scale(0.7)"/>
      </g>
     </g>
    </g>
    <g id="xtick_2">
     <g id="line2d_2">
      <g>
       <use xlink:href="#md6933dea9e" x="372.551378" y="350.810156" style="fill: #52514e; stroke: #52514e; stroke-width: 1.2"/>
      </g>
     </g>
     <g id="text_2">
      <!-- $\mathdefault{10^{4}}$ -->
      <g style="fill: #52514e" transform="translate(354.951378 378.910156) scale(0.2 -0.2)">
       <defs>
        <path id="DejaVuSans-17" d="M 2419 4116 
L 825 1625 
L 2419 1625 
L 2419 4116 
z
M 2253 4666 
L 3047 4666 
L 3047 1625 
L 3713 1625 
L 3713 1100 
L 3047 1100 
L 3047 0 
L 2419 0 
L 2419 1100 
L 313 1100 
L 313 1709 
L 2253 4666 
z
" transform="scale(0.015625)"/>
       </defs>
       <use xlink:href="#DejaVuSans-14" transform="translate(0 0.665625)"/>
       <use xlink:href="#DejaVuSans-13" transform="translate(63.623047 0.665625)"/>
       <use xlink:href="#DejaVuSans-17" transform="translate(128.203125 41.965625) scale(0.7)"/>
      </g>
     </g>
    </g>
    <g id="xtick_3">
     <g id="line2d_3">
      <defs>
       <path id="m4f5c4a901f" d="M 0 0 
L 0 2 
" style="stroke: #52514e; stroke-width: 0.6"/>
      </defs>
      <g>
       <use xlink:href="#m4f5c4a901f" x="98.445437" y="350.810156" style="fill: #52514e; stroke: #52514e; stroke-width: 0.6"/>
      </g>
     </g>
    </g>
    <g id="xtick_4">
     <g id="line2d_4">
      <g>
       <use xlink:href="#m4f5c4a901f" x="112.209322" y="350.810156" style="fill: #52514e; stroke: #52514e; stroke-width: 0.6"/>
      </g>
     </g>
    </g>
    <g id="xtick_5">
     <g id="line2d_5">
      <g>
       <use xlink:href="#m4f5c4a901f" x="124.349928" y="350.810156" style="fill: #52514e; stroke: #52514e; stroke-width: 0.6"/>
      </g>
     </g>
    </g>
    <g id="xtick_6">
     <g id="line2d_6">
      <g>
       <use xlink:href="#m4f5c4a901f" x="206.656924" y="350.810156" style="fill: #52514e; stroke: #52514e; stroke-width: 0.6"/>
      </g>
     </g>
    </g>
    <g id="xtick_7">
     <g id="line2d_7">
      <g>
       <use xlink:href="#m4f5c4a901f" x="248.450653" y="350.810156" style="fill: #52514e; stroke: #52514e; stroke-width: 0.6"/>
      </g>
     </g>
    </g>
    <g id="xtick_8">
     <g id="line2d_8">
      <g>
       <use xlink:href="#m4f5c4a901f" x="278.103776" y="350.810156" style="fill: #52514e; stroke: #52514e; stroke-width: 0.6"/>
      </g>
     </g>
    </g>
    <g id="xtick_9">
     <g id="line2d_9">
      <g>
       <use xlink:href="#m4f5c4a901f" x="301.104525" y="350.810156" style="fill: #52514e; stroke: #52514e; stroke-width: 0.6"/>
      </g>
     </g>
    </g>
    <g id="xtick_10">
     <g id="line2d_10">
      <g>
       <use xlink:href="#m4f5c4a901f" x="319.897506" y="350.810156" style="fill: #52514e; stroke: #52514e; stroke-width: 0.6"/>
      </g>
     </g>
    </g>
    <g id="xtick_11">
     <g id="line2d_11">
      <g>
       <use xlink:href="#m4f5c4a901f" x="335.786744" y="350.810156" style="fill: #52514e; stroke: #52514e; stroke-width: 0.6"/>
      </g>
     </g>
    </g>
    <g id="xtick_12">
     <g id="line2d_12">
      <g>
       <use xlink:href="#m4f5c4a901f" x="349.550629" y="350.810156" style="fill: #52514e; stroke: #52514e; stroke-width: 0.6"/>
      </g>
     </g>
    </g>
    <g id="xtick_13">
     <g id="line2d_13">
      <g>
       <use xlink:href="#m4f5c4a901f" x="361.691235" y="350.810156" style="fill: #52514e; stroke: #52514e; stroke-width: 0.6"/>
      </g>
     </g>
    </g>
    <g id="xtick_14">
     <g id="line2d_14">
      <g>
       <use xlink:href="#m4f5c4a901f" x="443.998231" y="350.810156" style="fill: #52514e; stroke: #52514e; stroke-width: 0.6"/>
      </g>
     </g>
    </g>
    <g id="xtick_15">
     <g id="line2d_15">
      <g>
       <use xlink:href="#m4f5c4a901f" x="485.79196" y="350.810156" style="fill: #52514e; stroke: #52514e; stroke-width: 0.6"/>
      </g>
     </g>
    </g>
    <g id="text_3">
     <!-- Nominal residual [µT] -->
     <g style="fill: #0b0b0b" transform="translate(174.695391 404.631406) scale(0.22 -0.22)">
      <defs>
       <path id="DejaVuSans-31" d="M 628 4666 
L 1478 4666 
L 3547 763 
L 3547 4666 
L 4159 4666 
L 4159 0 
L 3309 0 
L 1241 3903 
L 1241 0 
L 628 0 
L 628 4666 
z
" transform="scale(0.015625)"/>
       <path id="DejaVuSans-52" d="M 1959 3097 
Q 1497 3097 1228 2736 
Q 959 2375 959 1747 
Q 959 1119 1226 758 
Q 1494 397 1959 397 
Q 2419 397 2687 759 
Q 2956 1122 2956 1747 
Q 2956 2369 2687 2733 
Q 2419 3097 1959 3097 
z
M 1959 3584 
Q 2709 3584 3137 3096 
Q 3566 2609 3566 1747 
Q 3566 888 3137 398 
Q 2709 -91 1959 -91 
Q 1206 -91 779 398 
Q 353 888 353 1747 
Q 353 2609 779 3096 
Q 1206 3584 1959 3584 
z
" transform="scale(0.015625)"/>
       <path id="DejaVuSans-50" d="M 3328 2828 
Q 3544 3216 3844 3400 
Q 4144 3584 4550 3584 
Q 5097 3584 5394 3201 
Q 5691 2819 5691 2113 
L 5691 0 
L 5113 0 
L 5113 2094 
Q 5113 2597 4934 2840 
Q 4756 3084 4391 3084 
Q 3944 3084 3684 2787 
Q 3425 2491 3425 1978 
L 3425 0 
L 2847 0 
L 2847 2094 
Q 2847 2600 2669 2842 
Q 2491 3084 2119 3084 
Q 1678 3084 1418 2786 
Q 1159 2488 1159 1978 
L 1159 0 
L 581 0 
L 581 3500 
L 1159 3500 
L 1159 2956 
Q 1356 3278 1631 3431 
Q 1906 3584 2284 3584 
Q 2666 3584 2933 3390 
Q 3200 3197 3328 2828 
z
" transform="scale(0.015625)"/>
       <path id="DejaVuSans-4c" d="M 603 3500 
L 1178 3500 
L 1178 0 
L 603 0 
L 603 3500 
z
M 603 4863 
L 1178 4863 
L 1178 4134 
L 603 4134 
L 603 4863 
z
" transform="scale(0.015625)"/>
       <path id="DejaVuSans-51" d="M 3513 2113 
L 3513 0 
L 2938 0 
L 2938 2094 
Q 2938 2591 2744 2837 
Q 2550 3084 2163 3084 
Q 1697 3084 1428 2787 
Q 1159 2491 1159 1978 
L 1159 0 
L 581 0 
L 581 3500 
L 1159 3500 
L 1159 2956 
Q 1366 3272 1645 3428 
Q 1925 3584 2291 3584 
Q 2894 3584 3203 3211 
Q 3513 2838 3513 2113 
z
" transform="scale(0.015625)"/>
       <path id="DejaVuSans-44" d="M 2194 1759 
Q 1497 1759 1228 1600 
Q 959 1441 959 1056 
Q 959 750 1161 570 
Q 1363 391 1709 391 
Q 2188 391 2477 730 
Q 2766 1069 2766 1631 
L 2766 1759 
L 2194 1759 
z
M 3341 1997 
L 3341 0 
L 2766 0 
L 2766 531 
Q 2569 213 2275 61 
Q 1981 -91 1556 -91 
Q 1019 -91 701 211 
Q 384 513 384 1019 
Q 384 1609 779 1909 
Q 1175 2209 1959 2209 
L 2766 2209 
L 2766 2266 
Q 2766 2663 2505 2880 
Q 2244 3097 1772 3097 
Q 1472 3097 1187 3025 
Q 903 2953 641 2809 
L 641 3341 
Q 956 3463 1253 3523 
Q 1550 3584 1831 3584 
Q 2591 3584 2966 3190 
Q 3341 2797 3341 1997 
z
" transform="scale(0.015625)"/>
       <path id="DejaVuSans-4f" d="M 603 4863 
L 1178 4863 
L 1178 0 
L 603 0 
L 603 4863 
z
" transform="scale(0.015625)"/>
       <path id="DejaVuSans-3" transform="scale(0.015625)"/>
       <path id="DejaVuSans-55" d="M 2631 2963 
Q 2534 3019 2420 3045 
Q 2306 3072 2169 3072 
Q 1681 3072 1420 2755 
Q 1159 2438 1159 1844 
L 1159 0 
L 581 0 
L 581 3500 
L 1159 3500 
L 1159 2956 
Q 1341 3275 1631 3429 
Q 1922 3584 2338 3584 
Q 2397 3584 2469 3576 
Q 2541 3569 2628 3553 
L 2631 2963 
z
" transform="scale(0.015625)"/>
       <path id="DejaVuSans-48" d="M 3597 1894 
L 3597 1613 
L 953 1613 
Q 991 1019 1311 708 
Q 1631 397 2203 397 
Q 2534 397 2845 478 
Q 3156 559 3463 722 
L 3463 178 
Q 3153 47 2828 -22 
Q 2503 -91 2169 -91 
Q 1331 -91 842 396 
Q 353 884 353 1716 
Q 353 2575 817 3079 
Q 1281 3584 2069 3584 
Q 2775 3584 3186 3129 
Q 3597 2675 3597 1894 
z
M 3022 2063 
Q 3016 2534 2758 2815 
Q 2500 3097 2075 3097 
Q 1594 3097 1305 2825 
Q 1016 2553 972 2059 
L 3022 2063 
z
" transform="scale(0.015625)"/>
       <path id="DejaVuSans-56" d="M 2834 3397 
L 2834 2853 
Q 2591 2978 2328 3040 
Q 2066 3103 1784 3103 
Q 1356 3103 1142 2972 
Q 928 2841 928 2578 
Q 928 2378 1081 2264 
Q 1234 2150 1697 2047 
L 1894 2003 
Q 2506 1872 2764 1633 
Q 3022 1394 3022 966 
Q 3022 478 2636 193 
Q 2250 -91 1575 -91 
Q 1294 -91 989 -36 
Q 684 19 347 128 
L 347 722 
Q 666 556 975 473 
Q 1284 391 1588 391 
Q 1994 391 2212 530 
Q 2431 669 2431 922 
Q 2431 1156 2273 1281 
Q 2116 1406 1581 1522 
L 1381 1569 
Q 847 1681 609 1914 
Q 372 2147 372 2553 
Q 372 3047 722 3315 
Q 1072 3584 1716 3584 
Q 2034 3584 2315 3537 
Q 2597 3491 2834 3397 
z
" transform="scale(0.015625)"/>
       <path id="DejaVuSans-47" d="M 2906 2969 
L 2906 4863 
L 3481 4863 
L 3481 0 
L 2906 0 
L 2906 525 
Q 2725 213 2448 61 
Q 2172 -91 1784 -91 
Q 1150 -91 751 415 
Q 353 922 353 1747 
Q 353 2572 751 3078 
Q 1150 3584 1784 3584 
Q 2172 3584 2448 3432 
Q 2725 3281 2906 2969 
z
M 947 1747 
Q 947 1113 1208 752 
Q 1469 391 1925 391 
Q 2381 391 2643 752 
Q 2906 1113 2906 1747 
Q 2906 2381 2643 2742 
Q 2381 3103 1925 3103 
Q 1469 3103 1208 2742 
Q 947 2381 947 1747 
z
" transform="scale(0.015625)"/>
       <path id="DejaVuSans-58" d="M 544 1381 
L 544 3500 
L 1119 3500 
L 1119 1403 
Q 1119 906 1312 657 
Q 1506 409 1894 409 
Q 2359 409 2629 706 
Q 2900 1003 2900 1516 
L 2900 3500 
L 3475 3500 
L 3475 0 
L 2900 0 
L 2900 538 
Q 2691 219 2414 64 
Q 2138 -91 1772 -91 
Q 1169 -91 856 284 
Q 544 659 544 1381 
z
M 1991 3584 
L 1991 3584 
z
" transform="scale(0.015625)"/>
       <path id="DejaVuSans-3e" d="M 550 4863 
L 1875 4863 
L 1875 4416 
L 1125 4416 
L 1125 -397 
L 1875 -397 
L 1875 -844 
L 550 -844 
L 550 4863 
z
" transform="scale(0.015625)"/>
       <path id="DejaVuSans-77" d="M 544 -1331 
L 544 3500 
L 1119 3500 
L 1119 1325 
Q 1119 872 1334 640 
Q 1550 409 1972 409 
Q 2434 409 2667 671 
Q 2900 934 2900 1459 
L 2900 3500 
L 3475 3500 
L 3475 806 
Q 3475 619 3529 530 
Q 3584 441 3700 441 
Q 3728 441 3778 458 
Q 3828 475 3916 513 
L 3916 50 
Q 3788 -22 3673 -56 
Q 3559 -91 3450 -91 
Q 3234 -91 3106 31 
Q 2978 153 2931 403 
Q 2775 156 2548 32 
Q 2322 -91 2016 -91 
Q 1697 -91 1473 31 
Q 1250 153 1119 397 
L 1119 -1331 
L 544 -1331 
z
" transform="scale(0.015625)"/>
       <path id="DejaVuSans-37" d="M -19 4666 
L 3928 4666 
L 3928 4134 
L 2272 4134 
L 2272 0 
L 1638 0 
L 1638 4134 
L -19 4134 
L -19 4666 
z
" transform="scale(0.015625)"/>
       <path id="DejaVuSans-40" d="M 1947 4863 
L 1947 -844 
L 622 -844 
L 622 -397 
L 1369 -397 
L 1369 4416 
L 622 4416 
L 622 4863 
L 1947 4863 
z
" transform="scale(0.015625)"/>
      </defs>
      <use xlink:href="#DejaVuSans-31"/>
      <use xlink:href="#DejaVuSans-52" transform="translate(74.8125 0)"/>
      <use xlink:href="#DejaVuSans-50" transform="translate(136 0)"/>
      <use xlink:href="#DejaVuSans-4c" transform="translate(233.40625 0)"/>
      <use xlink:href="#DejaVuSans-51" transform="translate(261.1875 0)"/>
      <use xlink:href="#DejaVuSans-44" transform="translate(324.5625 0)"/>
      <use xlink:href="#DejaVuSans-4f" transform="translate(385.84375 0)"/>
      <use xlink:href="#DejaVuSans-3" transform="translate(413.625 0)"/>
      <use xlink:href="#DejaVuSans-55" transform="translate(445.40625 0)"/>
      <use xlink:href="#DejaVuSans-48" transform="translate(484.3125 0)"/>
      <use xlink:href="#DejaVuSans-56" transform="translate(545.84375 0)"/>
      <use xlink:href="#DejaVuSans-4c" transform="translate(597.9375 0)"/>
      <use xlink:href="#DejaVuSans-47" transform="translate(625.71875 0)"/>
      <use xlink:href="#DejaVuSans-58" transform="translate(689.203125 0)"/>
      <use xlink:href="#DejaVuSans-44" transform="translate(752.578125 0)"/>
      <use xlink:href="#DejaVuSans-4f" transform="translate(813.859375 0)"/>
      <use xlink:href="#DejaVuSans-3" transform="translate(841.640625 0)"/>
      <use xlink:href="#DejaVuSans-3e" transform="translate(873.421875 0)"/>
      <use xlink:href="#DejaVuSans-77" transform="translate(912.4375 0)"/>
      <use xlink:href="#DejaVuSans-37" transform="translate(976.0625 0)"/>
      <use xlink:href="#DejaVuSans-40" transform="translate(1037.140625 0)"/>
     </g>
    </g>
   </g>
   <g id="matplotlib.axis_2">
    <g id="ytick_1">
     <g id="line2d_16">
      <defs>
       <path id="mdb1de3d6ea" d="M 0 0 
L -6 0 
" style="stroke: #52514e; stroke-width: 1.2"/>
      </defs>
      <g>
       <use xlink:href="#mdb1de3d6ea" x="92.945156" y="316.047206" style="fill: #52514e; stroke: #52514e; stroke-width: 1.2"/>
      </g>
     </g>
     <g id="text_4">
      <!-- $\mathdefault{10^{3}}$ -->
      <g style="fill: #52514e" transform="translate(48.245156 325.447206) scale(0.2 -0.2)">
       <use xlink:href="#DejaVuSans-14" transform="translate(0 0.746875)"/>
       <use xlink:href="#DejaVuSans-13" transform="translate(63.623047 0.746875)"/>
       <use xlink:href="#DejaVuSans-16" transform="translate(128.203125 42.046875) scale(0.7)"/>
      </g>
     </g>
    </g>
    <g id="ytick_2">
     <g id="line2d_17">
      <g>
       <use xlink:href="#mdb1de3d6ea" x="92.945156" y="120.833657" style="fill: #52514e; stroke: #52514e; stroke-width: 1.2"/>
      </g>
     </g>
     <g id="text_5">
      <!-- $\mathdefault{10^{4}}$ -->
      <g style="fill: #52514e" transform="translate(48.245156 130.133657) scale(0.2 -0.2)">
       <use xlink:href="#DejaVuSans-14" transform="translate(0 0.665625)"/>
       <use xlink:href="#DejaVuSans-13" transform="translate(63.623047 0.665625)"/>
       <use xlink:href="#DejaVuSans-17" transform="translate(128.203125 41.965625) scale(0.7)"/>
      </g>
     </g>
    </g>
    <g id="ytick_3">
     <g id="line2d_18">
      <defs>
       <path id="m1cf2ba9f56" d="M 0 0 
L -2 0 
" style="stroke: #52514e; stroke-width: 0.6"/>
      </defs>
      <g>
       <use xlink:href="#m1cf2ba9f56" x="92.945156" y="346.286168" style="fill: #52514e; stroke: #52514e; stroke-width: 0.6"/>
      </g>
     </g>
    </g>
    <g id="ytick_4">
     <g id="line2d_19">
      <g>
       <use xlink:href="#m1cf2ba9f56" x="92.945156" y="334.965354" style="fill: #52514e; stroke: #52514e; stroke-width: 0.6"/>
      </g>
     </g>
    </g>
    <g id="ytick_5">
     <g id="line2d_20">
      <g>
       <use xlink:href="#m1cf2ba9f56" x="92.945156" y="324.979688" style="fill: #52514e; stroke: #52514e; stroke-width: 0.6"/>
      </g>
     </g>
    </g>
    <g id="ytick_6">
     <g id="line2d_21">
      <g>
       <use xlink:href="#m1cf2ba9f56" x="92.945156" y="257.282072" style="fill: #52514e; stroke: #52514e; stroke-width: 0.6"/>
      </g>
     </g>
    </g>
    <g id="ytick_7">
     <g id="line2d_22">
      <g>
       <use xlink:href="#m1cf2ba9f56" x="92.945156" y="222.906672" style="fill: #52514e; stroke: #52514e; stroke-width: 0.6"/>
      </g>
     </g>
    </g>
    <g id="ytick_8">
     <g id="line2d_23">
      <g>
       <use xlink:href="#m1cf2ba9f56" x="92.945156" y="198.516938" style="fill: #52514e; stroke: #52514e; stroke-width: 0.6"/>
      </g>
     </g>
    </g>
    <g id="ytick_9">
     <g id="line2d_24">
      <g>
       <use xlink:href="#m1cf2ba9f56" x="92.945156" y="179.598791" style="fill: #52514e; stroke: #52514e; stroke-width: 0.6"/>
      </g>
     </g>
    </g>
    <g id="ytick_10">
     <g id="line2d_25">
      <g>
       <use xlink:href="#m1cf2ba9f56" x="92.945156" y="164.141538" style="fill: #52514e; stroke: #52514e; stroke-width: 0.6"/>
      </g>
     </g>
    </g>
    <g id="ytick_11">
     <g id="line2d_26">
      <g>
       <use xlink:href="#m1cf2ba9f56" x="92.945156" y="151.072618" style="fill: #52514e; stroke: #52514e; stroke-width: 0.6"/>
      </g>
     </g>
    </g>
    <g id="ytick_12">
     <g id="line2d_27">
      <g>
       <use xlink:href="#m1cf2ba9f56" x="92.945156" y="139.751804" style="fill: #52514e; stroke: #52514e; stroke-width: 0.6"/>
      </g>
     </g>
    </g>
    <g id="ytick_13">
     <g id="line2d_28">
      <g>
       <use xlink:href="#m1cf2ba9f56" x="92.945156" y="129.766139" style="fill: #52514e; stroke: #52514e; stroke-width: 0.6"/>
      </g>
     </g>
    </g>
    <g id="ytick_14">
     <g id="line2d_29">
      <g>
       <use xlink:href="#m1cf2ba9f56" x="92.945156" y="62.068523" style="fill: #52514e; stroke: #52514e; stroke-width: 0.6"/>
      </g>
     </g>
    </g>
    <g id="ytick_15">
     <g id="line2d_30">
      <g>
       <use xlink:href="#m1cf2ba9f56" x="92.945156" y="27.693123" style="fill: #52514e; stroke: #52514e; stroke-width: 0.6"/>
      </g>
     </g>
    </g>
    <g id="text_6">
     <!-- Fitted residual [µT] -->
     <g style="fill: #0b0b0b" transform="translate(38.96 290.041641) rotate(-90) scale(0.22 -0.22)">
      <defs>
       <path id="DejaVuSans-29" d="M 628 4666 
L 3309 4666 
L 3309 4134 
L 1259 4134 
L 1259 2759 
L 3109 2759 
L 3109 2228 
L 1259 2228 
L 1259 0 
L 628 0 
L 628 4666 
z
" transform="scale(0.015625)"/>
       <path id="DejaVuSans-57" d="M 1172 4494 
L 1172 3500 
L 2356 3500 
L 2356 3053 
L 1172 3053 
L 1172 1153 
Q 1172 725 1289 603 
Q 1406 481 1766 481 
L 2356 481 
L 2356 0 
L 1766 0 
Q 1100 0 847 248 
Q 594 497 594 1153 
L 594 3053 
L 172 3053 
L 172 3500 
L 594 3500 
L 594 4494 
L 1172 4494 
z
" transform="scale(0.015625)"/>
      </defs>
      <use xlink:href="#DejaVuSans-29"/>
      <use xlink:href="#DejaVuSans-4c" transform="translate(50.234375 0)"/>
      <use xlink:href="#DejaVuSans-57" transform="translate(78.015625 0)"/>
      <use xlink:href="#DejaVuSans-57" transform="translate(117.21875 0)"/>
      <use xlink:href="#DejaVuSans-48" transform="translate(156.421875 0)"/>
      <use xlink:href="#DejaVuSans-47" transform="translate(217.953125 0)"/>
      <use xlink:href="#DejaVuSans-3" transform="translate(281.4375 0)"/>
      <use xlink:href="#DejaVuSans-55" transform="translate(313.21875 0)"/>
      <use xlink:href="#DejaVuSans-48" transform="translate(352.125 0)"/>
      <use xlink:href="#DejaVuSans-56" transform="translate(413.65625 0)"/>
      <use xlink:href="#DejaVuSans-4c" transform="translate(465.75 0)"/>
      <use xlink:href="#DejaVuSans-47" transform="translate(493.53125 0)"/>
      <use xlink:href="#DejaVuSans-58" transform="translate(557.015625 0)"/>
      <use xlink:href="#DejaVuSans-44" transform="translate(620.390625 0)"/>
      <use xlink:href="#DejaVuSans-4f" transform="translate(681.671875 0)"/>
      <use xlink:href="#DejaVuSans-3" transform="translate(709.453125 0)"/>
      <use xlink:href="#DejaVuSans-3e" transform="translate(741.234375 0)"/>
      <use xlink:href="#DejaVuSans-77" transform="translate(780.25 0)"/>
      <use xlink:href="#DejaVuSans-37" transform="translate(843.875 0)"/>
      <use xlink:href="#DejaVuSans-40" transform="translate(904.953125 0)"/>
     </g>
    </g>
   </g>
   <g id="line2d_31">
    <path d="M 92.945156 350.810156 
L 493.2 21.6 
" clip-path="url(#p7b3068c14f)" style="fill: none; stroke-dasharray: 1.2,1.98; stroke-dashoffset: 0; stroke: #808080; stroke-width: 1.2"/>
   </g>
   <g id="patch_3">
    <path d="M 92.945156 350.810156 
L 92.945156 21.6 
" style="fill: none; stroke: #52514e; stroke-width: 1.2; stroke-linejoin: miter; stroke-linecap: square"/>
   </g>
   <g id="patch_4">
    <path d="M 92.945156 350.810156 
L 493.2 350.810156 
" style="fill: none; stroke: #52514e; stroke-width: 1.2; stroke-linejoin: miter; stroke-linecap: square"/>
   </g>
   <g id="text_7">
    <!-- Measured drives -->
    <g style="fill: #0b0b0b" transform="translate(112.957898 47.936813) scale(0.2 -0.2)">
     <defs>
      <path id="DejaVuSans-30" d="M 628 4666 
L 1569 4666 
L 2759 1491 
L 3956 4666 
L 4897 4666 
L 4897 0 
L 4281 0 
L 4281 4097 
L 3078 897 
L 2444 897 
L 1241 4097 
L 1241 0 
L 628 0 
L 628 4666 
z
" transform="scale(0.015625)"/>
      <path id="DejaVuSans-59" d="M 191 3500 
L 800 3500 
L 1894 563 
L 2988 3500 
L 3597 3500 
L 2284 0 
L 1503 0 
L 191 3500 
z
" transform="scale(0.015625)"/>
     </defs>
     <use xlink:href="#DejaVuSans-30"/>
     <use xlink:href="#DejaVuSans-48" transform="translate(86.28125 0)"/>
     <use xlink:href="#DejaVuSans-44" transform="translate(147.8125 0)"/>
     <use xlink:href="#DejaVuSans-56" transform="translate(209.09375 0)"/>
     <use xlink:href="#DejaVuSans-58" transform="translate(261.1875 0)"/>
     <use xlink:href="#DejaVuSans-55" transform="translate(324.5625 0)"/>
     <use xlink:href="#DejaVuSans-48" transform="translate(363.46875 0)"/>
     <use xlink:href="#DejaVuSans-47" transform="translate(425 0)"/>
     <use xlink:href="#DejaVuSans-3" transform="translate(488.484375 0)"/>
     <use xlink:href="#DejaVuSans-47" transform="translate(520.265625 0)"/>
     <use xlink:href="#DejaVuSans-55" transform="translate(583.75 0)"/>
     <use xlink:href="#DejaVuSans-4c" transform="translate(624.859375 0)"/>
     <use xlink:href="#DejaVuSans-59" transform="translate(652.640625 0)"/>
     <use xlink:href="#DejaVuSans-48" transform="translate(711.828125 0)"/>
     <use xlink:href="#DejaVuSans-56" transform="translate(773.359375 0)"/>
    </g>
   </g>
  </g>
  <g id="axes_2">
   <g id="patch_5">
    <path d="M 586.145156 350.810156 
L 986.4 350.810156 
L 986.4 21.6 
L 586.145156 21.6 
z
" style="fill: #ffffff"/>
   </g>
   <g id="PathCollection_2">
    <g clip-path="url(#pd904bfd450)">
     <use xlink:href="#m68da47c972" x="891.77355" y="100.943695" style="fill: #262626; stroke: #262626"/>
     <use xlink:href="#m68da47c972" x="639.897225" y="306.51593" style="fill: #262626; stroke: #262626"/>
     <use xlink:href="#m68da47c972" x="969.969229" y="35.400159" style="fill: #262626; stroke: #262626"/>
     <use xlink:href="#m68da47c972" x="960.710177" y="42.795155" style="fill: #262626; stroke: #262626"/>
     <use xlink:href="#m68da47c972" x="937.109686" y="61.975674" style="fill: #262626; stroke: #262626"/>
     <use xlink:href="#m68da47c972" x="812.058921" y="165.001253" style="fill: #262626; stroke: #262626"/>
     <use xlink:href="#m68da47c972" x="957.660165" y="45.274004" style="fill: #262626; stroke: #262626"/>
     <use xlink:href="#m68da47c972" x="904.864577" y="88.661548" style="fill: #262626; stroke: #262626"/>
     <use xlink:href="#m68da47c972" x="783.78143" y="187.761866" style="fill: #262626; stroke: #262626"/>
     <use xlink:href="#m68da47c972" x="807.621386" y="167.742065" style="fill: #262626; stroke: #262626"/>
     <use xlink:href="#m68da47c972" x="945.808257" y="55.280809" style="fill: #262626; stroke: #262626"/>
     <use xlink:href="#m68da47c972" x="909.760671" y="84.802155" style="fill: #262626; stroke: #262626"/>
     <use xlink:href="#m68da47c972" x="824.620101" y="154.537792" style="fill: #262626; stroke: #262626"/>
     <use xlink:href="#m68da47c972" x="777.202647" y="189.497037" style="fill: #262626; stroke: #262626"/>
     <use xlink:href="#m68da47c972" x="912.565131" y="82.31168" style="fill: #262626; stroke: #262626"/>
     <use xlink:href="#m68da47c972" x="683.250453" y="270.51549" style="fill: #262626; stroke: #262626"/>
     <use xlink:href="#m68da47c972" x="851.329758" y="132.997594" style="fill: #262626; stroke: #262626"/>
     <use xlink:href="#m68da47c972" x="629.555608" y="314.742587" style="fill: #262626; stroke: #262626"/>
     <use xlink:href="#m68da47c972" x="901.465523" y="91.545074" style="fill: #262626; stroke: #262626"/>
     <use xlink:href="#m68da47c972" x="779.503548" y="191.914013" style="fill: #262626; stroke: #262626"/>
     <use xlink:href="#m68da47c972" x="889.222257" y="101.585231" style="fill: #262626; stroke: #262626"/>
     <use xlink:href="#m68da47c972" x="767.378974" y="201.921552" style="fill: #262626; stroke: #262626"/>
     <use xlink:href="#m68da47c972" x="693.396089" y="262.729003" style="fill: #262626; stroke: #262626"/>
     <use xlink:href="#m68da47c972" x="832.908405" y="147.78974" style="fill: #262626; stroke: #262626"/>
     <use xlink:href="#m68da47c972" x="945.409888" y="55.27906" style="fill: #262626; stroke: #262626"/>
     <use xlink:href="#m68da47c972" x="907.861957" y="86.221272" style="fill: #262626; stroke: #262626"/>
     <use xlink:href="#m68da47c972" x="827.698279" y="152.286434" style="fill: #262626; stroke: #262626"/>
     <use xlink:href="#m68da47c972" x="754.902252" y="209.819432" style="fill: #262626; stroke: #262626"/>
     <use xlink:href="#m68da47c972" x="747.816815" y="219.437624" style="fill: #262626; stroke: #262626"/>
     <use xlink:href="#m68da47c972" x="606.254795" y="334.179986" style="fill: #262626; stroke: #262626"/>
     <use xlink:href="#m68da47c972" x="894.584" y="97.382789" style="fill: #262626; stroke: #262626"/>
     <use xlink:href="#m68da47c972" x="957.543389" y="46.07231" style="fill: #262626; stroke: #262626"/>
     <use xlink:href="#m68da47c972" x="772.062377" y="197.871768" style="fill: #262626; stroke: #262626"/>
     <use xlink:href="#m68da47c972" x="901.048776" y="93.500043" style="fill: #262626; stroke: #262626"/>
     <use xlink:href="#m68da47c972" x="836.556015" y="145.332797" style="fill: #262626; stroke: #262626"/>
     <use xlink:href="#m68da47c972" x="890.199966" y="101.127009" style="fill: #262626; stroke: #262626"/>
     <use xlink:href="#m68da47c972" x="953.694223" y="48.134214" style="fill: #262626; stroke: #262626"/>
    </g>
   </g>
   <g id="matplotlib.axis_3">
    <g id="xtick_16">
     <g id="line2d_32">
      <g>
       <use xlink:href="#md6933dea9e" x="586.972509" y="350.810156" style="fill: #52514e; stroke: #52514e; stroke-width: 1.2"/>
      </g>
     </g>
     <g id="text_8">
      <!-- $\mathdefault{10^{3}}$ -->
      <g style="fill: #52514e" transform="translate(569.372509 379.110156) scale(0.2 -0.2)">
       <use xlink:href="#DejaVuSans-14" transform="translate(0 0.746875)"/>
       <use xlink:href="#DejaVuSans-13" transform="translate(63.623047 0.746875)"/>
       <use xlink:href="#DejaVuSans-16" transform="translate(128.203125 42.046875) scale(0.7)"/>
      </g>
     </g>
    </g>
    <g id="xtick_17">
     <g id="line2d_33">
      <g>
       <use xlink:href="#md6933dea9e" x="794.480875" y="350.810156" style="fill: #52514e; stroke: #52514e; stroke-width: 1.2"/>
      </g>
     </g>
     <g id="text_9">
      <!-- $\mathdefault{10^{4}}$ -->
      <g style="fill: #52514e" transform="translate(776.880875 378.910156) scale(0.2 -0.2)">
       <use xlink:href="#DejaVuSans-14" transform="translate(0 0.665625)"/>
       <use xlink:href="#DejaVuSans-13" transform="translate(63.623047 0.665625)"/>
       <use xlink:href="#DejaVuSans-17" transform="translate(128.203125 41.965625) scale(0.7)"/>
      </g>
     </g>
    </g>
    <g id="xtick_18">
     <g id="line2d_34">
      <g>
       <use xlink:href="#m4f5c4a901f" x="649.438752" y="350.810156" style="fill: #52514e; stroke: #52514e; stroke-width: 0.6"/>
      </g>
     </g>
    </g>
    <g id="xtick_19">
     <g id="line2d_35">
      <g>
       <use xlink:href="#m4f5c4a901f" x="685.979161" y="350.810156" style="fill: #52514e; stroke: #52514e; stroke-width: 0.6"/>
      </g>
     </g>
    </g>
    <g id="xtick_20">
     <g id="line2d_36">
      <g>
       <use xlink:href="#m4f5c4a901f" x="711.904994" y="350.810156" style="fill: #52514e; stroke: #52514e; stroke-width: 0.6"/>
      </g>
     </g>
    </g>
    <g id="xtick_21">
     <g id="line2d_37">
      <g>
       <use xlink:href="#m4f5c4a901f" x="732.014632" y="350.810156" style="fill: #52514e; stroke: #52514e; stroke-width: 0.6"/>
      </g>
     </g>
    </g>
    <g id="xtick_22">
     <g id="line2d_38">
      <g>
       <use xlink:href="#m4f5c4a901f" x="748.445403" y="350.810156" style="fill: #52514e; stroke: #52514e; stroke-width: 0.6"/>
      </g>
     </g>
    </g>
    <g id="xtick_23">
     <g id="line2d_39">
      <g>
       <use xlink:href="#m4f5c4a901f" x="762.337422" y="350.810156" style="fill: #52514e; stroke: #52514e; stroke-width: 0.6"/>
      </g>
     </g>
    </g>
    <g id="xtick_24">
     <g id="line2d_40">
      <g>
       <use xlink:href="#m4f5c4a901f" x="774.371236" y="350.810156" style="fill: #52514e; stroke: #52514e; stroke-width: 0.6"/>
      </g>
     </g>
    </g>
    <g id="xtick_25">
     <g id="line2d_41">
      <g>
       <use xlink:href="#m4f5c4a901f" x="784.985813" y="350.810156" style="fill: #52514e; stroke: #52514e; stroke-width: 0.6"/>
      </g>
     </g>
    </g>
    <g id="xtick_26">
     <g id="line2d_42">
      <g>
       <use xlink:href="#m4f5c4a901f" x="856.947117" y="350.810156" style="fill: #52514e; stroke: #52514e; stroke-width: 0.6"/>
      </g>
     </g>
    </g>
    <g id="xtick_27">
     <g id="line2d_43">
      <g>
       <use xlink:href="#m4f5c4a901f" x="893.487526" y="350.810156" style="fill: #52514e; stroke: #52514e; stroke-width: 0.6"/>
      </g>
     </g>
    </g>
    <g id="xtick_28">
     <g id="line2d_44">
      <g>
       <use xlink:href="#m4f5c4a901f" x="919.413359" y="350.810156" style="fill: #52514e; stroke: #52514e; stroke-width: 0.6"/>
      </g>
     </g>
    </g>
    <g id="xtick_29">
     <g id="line2d_45">
      <g>
       <use xlink:href="#m4f5c4a901f" x="939.522998" y="350.810156" style="fill: #52514e; stroke: #52514e; stroke-width: 0.6"/>
      </g>
     </g>
    </g>
    <g id="xtick_30">
     <g id="line2d_46">
      <g>
       <use xlink:href="#m4f5c4a901f" x="955.953769" y="350.810156" style="fill: #52514e; stroke: #52514e; stroke-width: 0.6"/>
      </g>
     </g>
    </g>
    <g id="xtick_31">
     <g id="line2d_47">
      <g>
       <use xlink:href="#m4f5c4a901f" x="969.845788" y="350.810156" style="fill: #52514e; stroke: #52514e; stroke-width: 0.6"/>
      </g>
     </g>
    </g>
    <g id="xtick_32">
     <g id="line2d_48">
      <g>
       <use xlink:href="#m4f5c4a901f" x="981.879602" y="350.810156" style="fill: #52514e; stroke: #52514e; stroke-width: 0.6"/>
      </g>
     </g>
    </g>
    <g id="text_10">
     <!-- Nominal residual [µT] -->
     <g style="fill: #0b0b0b" transform="translate(667.895391 404.631406) scale(0.22 -0.22)">
      <use xlink:href="#DejaVuSans-31"/>
      <use xlink:href="#DejaVuSans-52" transform="translate(74.8125 0)"/>
      <use xlink:href="#DejaVuSans-50" transform="translate(136 0)"/>
      <use xlink:href="#DejaVuSans-4c" transform="translate(233.40625 0)"/>
      <use xlink:href="#DejaVuSans-51" transform="translate(261.1875 0)"/>
      <use xlink:href="#DejaVuSans-44" transform="translate(324.5625 0)"/>
      <use xlink:href="#DejaVuSans-4f" transform="translate(385.84375 0)"/>
      <use xlink:href="#DejaVuSans-3" transform="translate(413.625 0)"/>
      <use xlink:href="#DejaVuSans-55" transform="translate(445.40625 0)"/>
      <use xlink:href="#DejaVuSans-48" transform="translate(484.3125 0)"/>
      <use xlink:href="#DejaVuSans-56" transform="translate(545.84375 0)"/>
      <use xlink:href="#DejaVuSans-4c" transform="translate(597.9375 0)"/>
      <use xlink:href="#DejaVuSans-47" transform="translate(625.71875 0)"/>
      <use xlink:href="#DejaVuSans-58" transform="translate(689.203125 0)"/>
      <use xlink:href="#DejaVuSans-44" transform="translate(752.578125 0)"/>
      <use xlink:href="#DejaVuSans-4f" transform="translate(813.859375 0)"/>
      <use xlink:href="#DejaVuSans-3" transform="translate(841.640625 0)"/>
      <use xlink:href="#DejaVuSans-3e" transform="translate(873.421875 0)"/>
      <use xlink:href="#DejaVuSans-77" transform="translate(912.4375 0)"/>
      <use xlink:href="#DejaVuSans-37" transform="translate(976.0625 0)"/>
      <use xlink:href="#DejaVuSans-40" transform="translate(1037.140625 0)"/>
     </g>
    </g>
   </g>
   <g id="matplotlib.axis_4">
    <g id="ytick_16">
     <g id="line2d_49">
      <g>
       <use xlink:href="#mdb1de3d6ea" x="586.145156" y="350.129657" style="fill: #52514e; stroke: #52514e; stroke-width: 1.2"/>
      </g>
     </g>
     <g id="text_11">
      <!-- $\mathdefault{10^{3}}$ -->
      <g style="fill: #52514e" transform="translate(541.445156 359.529657) scale(0.2 -0.2)">
       <use xlink:href="#DejaVuSans-14" transform="translate(0 0.746875)"/>
       <use xlink:href="#DejaVuSans-13" transform="translate(63.623047 0.746875)"/>
       <use xlink:href="#DejaVuSans-16" transform="translate(128.203125 42.046875) scale(0.7)"/>
      </g>
     </g>
    </g>
    <g id="ytick_17">
     <g id="line2d_50">
      <g>
       <use xlink:href="#mdb1de3d6ea" x="586.145156" y="179.453743" style="fill: #52514e; stroke: #52514e; stroke-width: 1.2"/>
      </g>
     </g>
     <g id="text_12">
      <!-- $\mathdefault{10^{4}}$ -->
      <g style="fill: #52514e" transform="translate(541.445156 188.753743) scale(0.2 -0.2)">
       <use xlink:href="#DejaVuSans-14" transform="translate(0 0.665625)"/>
       <use xlink:href="#DejaVuSans-13" transform="translate(63.623047 0.665625)"/>
       <use xlink:href="#DejaVuSans-17" transform="translate(128.203125 41.965625) scale(0.7)"/>
      </g>
     </g>
    </g>
    <g id="ytick_18">
     <g id="line2d_51">
      <g>
       <use xlink:href="#m1cf2ba9f56" x="586.145156" y="298.751088" style="fill: #52514e; stroke: #52514e; stroke-width: 0.6"/>
      </g>
     </g>
    </g>
    <g id="ytick_19">
     <g id="line2d_52">
      <g>
       <use xlink:href="#m1cf2ba9f56" x="586.145156" y="268.696551" style="fill: #52514e; stroke: #52514e; stroke-width: 0.6"/>
      </g>
     </g>
    </g>
    <g id="ytick_20">
     <g id="line2d_53">
      <g>
       <use xlink:href="#m1cf2ba9f56" x="586.145156" y="247.372518" style="fill: #52514e; stroke: #52514e; stroke-width: 0.6"/>
      </g>
     </g>
    </g>
    <g id="ytick_21">
     <g id="line2d_54">
      <g>
       <use xlink:href="#m1cf2ba9f56" x="586.145156" y="230.832313" style="fill: #52514e; stroke: #52514e; stroke-width: 0.6"/>
      </g>
     </g>
    </g>
    <g id="ytick_22">
     <g id="line2d_55">
      <g>
       <use xlink:href="#m1cf2ba9f56" x="586.145156" y="217.317981" style="fill: #52514e; stroke: #52514e; stroke-width: 0.6"/>
      </g>
     </g>
    </g>
    <g id="ytick_23">
     <g id="line2d_56">
      <g>
       <use xlink:href="#m1cf2ba9f56" x="586.145156" y="205.891777" style="fill: #52514e; stroke: #52514e; stroke-width: 0.6"/>
      </g>
     </g>
    </g>
    <g id="ytick_24">
     <g id="line2d_57">
      <g>
       <use xlink:href="#m1cf2ba9f56" x="586.145156" y="195.993948" style="fill: #52514e; stroke: #52514e; stroke-width: 0.6"/>
      </g>
     </g>
    </g>
    <g id="ytick_25">
     <g id="line2d_58">
      <g>
       <use xlink:href="#m1cf2ba9f56" x="586.145156" y="187.263445" style="fill: #52514e; stroke: #52514e; stroke-width: 0.6"/>
      </g>
     </g>
    </g>
    <g id="ytick_26">
     <g id="line2d_59">
      <g>
       <use xlink:href="#m1cf2ba9f56" x="586.145156" y="128.075173" style="fill: #52514e; stroke: #52514e; stroke-width: 0.6"/>
      </g>
     </g>
    </g>
    <g id="ytick_27">
     <g id="line2d_60">
      <g>
       <use xlink:href="#m1cf2ba9f56" x="586.145156" y="98.020637" style="fill: #52514e; stroke: #52514e; stroke-width: 0.6"/>
      </g>
     </g>
    </g>
    <g id="ytick_28">
     <g id="line2d_61">
      <g>
       <use xlink:href="#m1cf2ba9f56" x="586.145156" y="76.696604" style="fill: #52514e; stroke: #52514e; stroke-width: 0.6"/>
      </g>
     </g>
    </g>
    <g id="ytick_29">
     <g id="line2d_62">
      <g>
       <use xlink:href="#m1cf2ba9f56" x="586.145156" y="60.156398" style="fill: #52514e; stroke: #52514e; stroke-width: 0.6"/>
      </g>
     </g>
    </g>
    <g id="ytick_30">
     <g id="line2d_63">
      <g>
       <use xlink:href="#m1cf2ba9f56" x="586.145156" y="46.642067" style="fill: #52514e; stroke: #52514e; stroke-width: 0.6"/>
      </g>
     </g>
    </g>
    <g id="ytick_31">
     <g id="line2d_64">
      <g>
       <use xlink:href="#m1cf2ba9f56" x="586.145156" y="35.215862" style="fill: #52514e; stroke: #52514e; stroke-width: 0.6"/>
      </g>
     </g>
    </g>
    <g id="ytick_32">
     <g id="line2d_65">
      <g>
       <use xlink:href="#m1cf2ba9f56" x="586.145156" y="25.318034" style="fill: #52514e; stroke: #52514e; stroke-width: 0.6"/>
      </g>
     </g>
    </g>
    <g id="text_13">
     <!-- Fitted residual [µT] -->
     <g style="fill: #0b0b0b" transform="translate(532.16 290.041641) rotate(-90) scale(0.22 -0.22)">
      <use xlink:href="#DejaVuSans-29"/>
      <use xlink:href="#DejaVuSans-4c" transform="translate(50.234375 0)"/>
      <use xlink:href="#DejaVuSans-57" transform="translate(78.015625 0)"/>
      <use xlink:href="#DejaVuSans-57" transform="translate(117.21875 0)"/>
      <use xlink:href="#DejaVuSans-48" transform="translate(156.421875 0)"/>
      <use xlink:href="#DejaVuSans-47" transform="translate(217.953125 0)"/>
      <use xlink:href="#DejaVuSans-3" transform="translate(281.4375 0)"/>
      <use xlink:href="#DejaVuSans-55" transform="translate(313.21875 0)"/>
      <use xlink:href="#DejaVuSans-48" transform="translate(352.125 0)"/>
      <use xlink:href="#DejaVuSans-56" transform="translate(413.65625 0)"/>
      <use xlink:href="#DejaVuSans-4c" transform="translate(465.75 0)"/>
      <use xlink:href="#DejaVuSans-47" transform="translate(493.53125 0)"/>
      <use xlink:href="#DejaVuSans-58" transform="translate(557.015625 0)"/>
      <use xlink:href="#DejaVuSans-44" transform="translate(620.390625 0)"/>
      <use xlink:href="#DejaVuSans-4f" transform="translate(681.671875 0)"/>
      <use xlink:href="#DejaVuSans-3" transform="translate(709.453125 0)"/>
      <use xlink:href="#DejaVuSans-3e" transform="translate(741.234375 0)"/>
      <use xlink:href="#DejaVuSans-77" transform="translate(780.25 0)"/>
      <use xlink:href="#DejaVuSans-37" transform="translate(843.875 0)"/>
      <use xlink:href="#DejaVuSans-40" transform="translate(904.953125 0)"/>
     </g>
    </g>
   </g>
   <g id="line2d_66">
    <path d="M 586.145156 350.810156 
L 986.4 21.6 
" clip-path="url(#pd904bfd450)" style="fill: none; stroke-dasharray: 1.2,1.98; stroke-dashoffset: 0; stroke: #808080; stroke-width: 1.2"/>
   </g>
   <g id="patch_6">
    <path d="M 586.145156 350.810156 
L 586.145156 21.6 
" style="fill: none; stroke: #52514e; stroke-width: 1.2; stroke-linejoin: miter; stroke-linecap: square"/>
   </g>
   <g id="patch_7">
    <path d="M 586.145156 350.810156 
L 986.4 350.810156 
" style="fill: none; stroke: #52514e; stroke-width: 1.2; stroke-linejoin: miter; stroke-linecap: square"/>
   </g>
   <g id="text_14">
    <!-- Permuted drives -->
    <g style="fill: #0b0b0b" transform="translate(606.157898 47.936813) scale(0.2 -0.2)">
     <defs>
      <path id="DejaVuSans-33" d="M 1259 4147 
L 1259 2394 
L 2053 2394 
Q 2494 2394 2734 2622 
Q 2975 2850 2975 3272 
Q 2975 3691 2734 3919 
Q 2494 4147 2053 4147 
L 1259 4147 
z
M 628 4666 
L 2053 4666 
Q 2838 4666 3239 4311 
Q 3641 3956 3641 3272 
Q 3641 2581 3239 2228 
Q 2838 1875 2053 1875 
L 1259 1875 
L 1259 0 
L 628 0 
L 628 4666 
z
" transform="scale(0.015625)"/>
     </defs>
     <use xlink:href="#DejaVuSans-33"/>
     <use xlink:href="#DejaVuSans-48" transform="translate(56.734375 0)"/>
     <use xlink:href="#DejaVuSans-55" transform="translate(118.265625 0)"/>
     <use xlink:href="#DejaVuSans-50" transform="translate(157.625 0)"/>
     <use xlink:href="#DejaVuSans-58" transform="translate(255.03125 0)"/>
     <use xlink:href="#DejaVuSans-57" transform="translate(318.40625 0)"/>
     <use xlink:href="#DejaVuSans-48" transform="translate(357.609375 0)"/>
     <use xlink:href="#DejaVuSans-47" transform="translate(419.140625 0)"/>
     <use xlink:href="#DejaVuSans-3" transform="translate(482.625 0)"/>
     <use xlink:href="#DejaVuSans-47" transform="translate(514.40625 0)"/>
     <use xlink:href="#DejaVuSans-55" transform="translate(577.890625 0)"/>
     <use xlink:href="#DejaVuSans-4c" transform="translate(619 0)"/>
     <use xlink:href="#DejaVuSans-59" transform="translate(646.78125 0)"/>
     <use xlink:href="#DejaVuSans-48" transform="translate(705.96875 0)"/>
     <use xlink:href="#DejaVuSans-56" transform="translate(767.5 0)"/>
    </g>
   </g>
  </g>
 </g>
 <defs>
  <clipPath id="p7b3068c14f">
   <rect x="92.945156" y="21.6" width="400.254844" height="329.210156"/>
  </clipPath>
  <clipPath id="pd904bfd450">
   <rect x="586.145156" y="21.6" width="400.254844" height="329.210156"/>
  </clipPath>
 </defs>
</svg>
